<svg width="120" height="24" viewBox="0 0 120 24" fill="none" xmlns="http://www.w3.org/2000/svg">
<path fill-rule="evenodd" clip-rule="evenodd" d="M17.1066 0.813543C19.7296 1.84147 22.137 3.78968 23.6613 6.1601C24.1227 6.86393 24.5217 7.60665 24.8538 8.37979C25.9309 10.9543 25.7453 13.9875 24.6579 16.5106C23.5704 19.0336 21.5802 21.066 19.1643 22.3617C14.7151 24.7471 8.87187 24.5458 4.70672 21.6381C0.264066 18.5374 -1.29025 12.2416 1.1556 7.46982C2.6846 4.48994 6.34166 1.84335 10.1665 1.80496C11.8474 1.79092 14.6082 2.71868 14.8135 4.6931C14.986 6.34734 12.9939 7.34905 11.6355 7.60089C9.88434 7.92387 8.3947 8.33579 7.191 9.75412C5.2017 12.1002 5.34888 15.3029 7.67567 17.3625C11.5896 20.8283 19.5027 18.5973 21.2455 13.775C22.2429 11.017 21.2033 7.8883 19.4887 5.50758C20.6961 6.82573 21.628 8.4266 22.0086 10.1735C22.3892 11.9204 22.1961 13.8144 21.3242 15.3759C20.7018 16.4918 19.8262 17.4009 18.8212 18.177C17.1703 19.4474 15.272 20.0606 13.233 20.3414C13.2207 20.3424 13.2092 20.3479 13.2007 20.3567C13.1921 20.3655 13.1871 20.3772 13.1865 20.3895C13.1859 20.4017 13.1899 20.4138 13.1975 20.4234C13.2052 20.433 13.2162 20.4395 13.2283 20.4416C17.5847 20.9078 21.6402 17.8802 22.6564 13.7423C22.7624 13.3114 22.837 12.8733 22.8795 12.4316C22.8898 12.323 22.8982 12.2135 22.9048 12.1049C22.9735 10.84 22.7781 9.57463 22.3311 8.38916C21.6561 6.60104 20.4533 5.05259 19.0312 3.79249C17.5041 2.43502 15.7191 1.40521 13.8161 0.662817C13.5909 0.588792 13.3715 0.49804 13.1598 0.391324C13.153 0.387439 13.1454 0.38322 13.1371 0.378675C13.064 0.33831 12.9444 0.272316 12.9377 0.188171C12.9241 -0.0428454 13.3757 -0.00208927 13.5298 0.0118133C13.5349 0.0122773 13.5398 0.0127115 13.5442 0.0131046C14.7653 0.0985815 15.9665 0.368461 17.1066 0.813543ZM33.8062 15.053V7.51672H35.3736V15.0062C35.3736 16.7484 36.327 17.7333 37.9273 17.7333C39.5425 17.7333 40.4641 16.7484 40.4641 15.0062V7.51672H42.0474V15.053C42.0474 17.7483 40.2541 19.2003 37.9273 19.2003C35.6005 19.2003 33.8062 17.7483 33.8062 15.053ZM55.1514 18.9588L48.9642 9.63062V18.9588H47.3789V7.51672H49.4985L55.2171 16.2953V7.51672H56.8014V18.9588H55.1514ZM77.4674 7.51672H74.8499L72.9919 14.8592L70.6164 7.51672H67.999L65.6234 14.8433L63.7354 7.51672H61.0167L64.1357 18.9588H66.8234L69.2795 11.3757L71.7169 18.9588H74.3484L77.4674 7.51672ZM80.5353 7.51672H83.5286L85.8723 11.7614L88.2441 7.51672H91.0884L87.0638 14.1814V18.956H84.5111V14.1814L80.5353 7.51672ZM97.6151 11.4384L102.334 18.9588H105.033V7.51672H102.48V14.4726L98.1814 7.51672H95.0783V18.9588H97.6151V11.4384ZM110.091 18.9588V7.51672H114.244C117.686 7.51672 119.997 9.71207 119.997 13.2462C119.997 16.7803 117.686 18.9569 114.228 18.9569L110.091 18.9588ZM114.13 16.5537C115.892 16.5537 117.331 15.537 117.331 13.2462C117.331 10.9553 115.892 9.92459 114.13 9.92459H112.644V16.5575L114.13 16.5537Z" fill="#202020"/>
</svg>
