<svg width="160" height="32" viewBox="0 0 160 32" fill="none" xmlns="http://www.w3.org/2000/svg">
<path fill-rule="evenodd" clip-rule="evenodd" d="M22.8088 1.08472C26.3061 2.4553 29.516 5.0529 31.5484 8.21347C32.1637 9.15191 32.6957 10.1422 33.1384 11.1731C34.5746 14.6057 34.3271 18.6501 32.8771 22.0141C31.4272 25.3781 28.7735 28.0881 25.5524 29.8156C19.6201 32.9962 11.8292 32.7278 6.27562 28.8507C0.352088 24.7165 -1.72034 16.3221 1.54079 9.95976C3.57947 5.98659 8.45554 2.4578 13.5554 2.40662C15.7965 2.38789 19.4776 3.62491 19.7514 6.25746C19.9814 8.46311 17.3252 9.79874 15.514 10.1345C13.1791 10.5652 11.1929 11.1144 9.588 13.0055C6.9356 16.1336 7.13184 20.4038 10.2342 23.15C15.4528 27.771 26.0036 24.7964 28.3273 18.3667C29.6573 14.6894 28.2711 10.5177 25.9849 7.34344C27.5948 9.10097 28.8373 11.2355 29.3448 13.5647C29.8523 15.8939 29.5948 18.4191 28.4323 20.5012C27.6023 21.9891 26.4349 23.2012 25.0949 24.236C22.8938 25.9298 20.3626 26.7474 17.644 27.1219C17.6276 27.1232 17.6123 27.1305 17.6009 27.1423C17.5895 27.1541 17.5828 27.1696 17.582 27.186C17.5812 27.2023 17.5865 27.2184 17.5967 27.2312C17.607 27.244 17.6215 27.2526 17.6377 27.2555C23.4462 27.8771 28.8535 23.8403 30.2085 18.323C30.3499 17.7485 30.4493 17.1644 30.506 16.5755C30.5197 16.4307 30.531 16.2846 30.5397 16.1398C30.6314 14.4533 30.3709 12.7662 29.7748 11.1855C28.8748 8.80139 27.2711 6.73679 25.3749 5.05665C23.3387 3.24669 20.9588 1.87362 18.4214 0.883756C18.1211 0.785056 17.8287 0.664054 17.5465 0.521765C17.5373 0.516586 17.5272 0.51096 17.5162 0.5049C17.4186 0.45108 17.2592 0.363088 17.2502 0.250895C17.2321 -0.0571275 17.8343 -0.00278559 18.0397 0.0157511C18.0466 0.0163698 18.053 0.0169486 18.0589 0.0174727C19.6871 0.131442 21.2886 0.491282 22.8088 1.08472ZM45.0749 20.0705V10.0221H47.1648V20.0081C47.1648 22.3311 48.436 23.6443 50.5697 23.6443C52.7233 23.6443 53.952 22.3311 53.952 20.0081V10.0221H56.0632V20.0705C56.0632 23.6642 53.6721 25.6003 50.5697 25.6003C47.4673 25.6003 45.0749 23.6642 45.0749 20.0705ZM73.5352 25.2782L65.2855 12.8407V25.2782H63.1719V10.0221H65.998L73.6227 21.727V10.0221H75.7352V25.2782H73.5352ZM103.29 10.0221H99.7998L97.3224 19.8121L94.155 10.0221H90.6651L87.4977 19.7909L84.9803 10.0221H81.3555L85.5141 25.2782H89.0977L92.3726 15.1674L95.6224 25.2782H99.1311L103.29 10.0221ZM107.38 10.0221H111.371L114.496 15.6817L117.659 10.0221H121.451L116.085 18.9084V25.2745H112.681V18.9084L107.38 10.0221ZM130.153 15.251L136.445 25.2782H140.044V10.0221H136.639V19.2966L130.908 10.0221H126.771V25.2782H130.153V15.251ZM146.788 25.2782V10.0221H152.325C156.915 10.0221 159.996 12.9493 159.996 17.6614C159.996 22.3735 156.915 25.2757 152.304 25.2757L146.788 25.2782ZM152.174 22.0715C154.522 22.0715 156.441 20.7159 156.441 17.6614C156.441 14.6069 154.522 13.2326 152.174 13.2326H150.193V22.0765L152.174 22.0715Z" fill="#202020"/>
</svg>
