<svg width="200" height="40" viewBox="0 0 200 40" fill="none" xmlns="http://www.w3.org/2000/svg">
<path fill-rule="evenodd" clip-rule="evenodd" d="M28.5109 1.35591C32.8826 3.06912 36.895 6.31613 39.4355 10.2668C40.2045 11.4399 40.8695 12.6778 41.4229 13.9663C43.2182 18.2572 42.9088 23.3126 41.0964 27.5176C39.284 31.7226 35.9669 35.1101 31.9405 37.2695C24.5251 41.2452 14.7864 40.9097 7.84452 36.0634C0.440109 30.8957 -2.15042 20.4026 1.92599 12.4497C4.47433 7.48324 10.5694 3.07225 16.9442 3.00827C19.7456 2.98487 24.347 4.53113 24.6892 7.82183C24.9767 10.5789 21.6565 12.2484 19.3925 12.6681C16.4739 13.2065 13.9912 13.893 11.985 16.2569C8.66949 20.167 8.91479 25.5048 12.7928 28.9375C19.316 34.7138 32.5045 30.9955 35.4091 22.9584C37.0715 18.3617 35.3388 13.1472 32.4811 9.1793C34.4935 11.3762 36.0466 14.0443 36.6809 16.9559C37.3153 19.8674 36.9934 23.0239 35.5403 25.6265C34.5029 27.4864 33.0436 29.0015 31.3686 30.295C28.6172 32.4123 25.4532 33.4343 22.0549 33.9024C22.0345 33.9041 22.0153 33.9131 22.0011 33.9278C21.9868 33.9426 21.9784 33.962 21.9775 33.9824C21.9765 34.0029 21.9831 34.023 21.9959 34.039C22.0087 34.055 22.0269 34.0658 22.0471 34.0693C29.3078 34.8464 36.0669 29.8003 37.7606 22.9038C37.9373 22.1856 38.0616 21.4555 38.1324 20.7193C38.1496 20.5383 38.1637 20.3558 38.1746 20.1748C38.2892 18.0666 37.9635 15.9577 37.2184 13.9819C36.0934 11.0017 34.0888 8.42099 31.7186 6.32081C29.1734 4.05836 26.1985 2.34202 23.0268 1.1047C22.6514 0.98132 22.2858 0.830067 21.933 0.652206C21.9217 0.645732 21.9089 0.6387 21.8952 0.631125C21.7733 0.56385 21.574 0.453861 21.5627 0.313619C21.5401 -0.071409 22.2929 -0.00348209 22.5496 0.0196889C22.5582 0.0204622 22.5662 0.0211858 22.5736 0.0218409C24.6089 0.164303 26.6107 0.614102 28.5109 1.35591ZM56.3433 25.0883V12.5278H58.9557V25.0102C58.9557 27.914 60.5447 29.5554 63.2118 29.5554C65.9039 29.5554 67.4398 27.914 67.4398 25.0102V12.5278H70.0787V25.0883C70.0787 29.5804 67.0898 32.0004 63.2118 32.0004C59.3338 32.0004 56.3433 29.5804 56.3433 25.0883ZM91.919 31.5979L81.6068 16.051V31.5979H78.9648V12.5278H82.4974L92.0283 27.1588V12.5278H94.6689V31.5979H91.919ZM129.112 12.5278H124.75L121.653 24.7653L117.694 12.5278H113.331L109.372 24.7388L106.225 12.5278H101.694L106.892 31.5979H111.372L115.466 18.9594L119.528 31.5979H123.914L129.112 12.5278ZM134.225 12.5278H139.214L143.12 19.6022L147.073 12.5278H151.814L145.106 23.6356V31.5932H140.852V23.6356L134.225 12.5278ZM162.692 19.0639L170.557 31.5979H175.055V12.5278H170.799V24.1209L163.635 12.5278H158.464V31.5979H162.692V19.0639ZM183.484 31.5979V12.5278H190.406C196.143 12.5278 199.995 16.1867 199.995 22.0769C199.995 27.967 196.143 31.5948 190.379 31.5948L183.484 31.5979ZM190.217 27.5894C193.153 27.5894 195.551 25.8949 195.551 22.0769C195.551 18.2588 193.153 16.5409 190.217 16.5409H187.74V27.5957L190.217 27.5894Z" fill="#202020"/>
</svg>
