<svg width="240" height="48" viewBox="0 0 240 48" fill="none" xmlns="http://www.w3.org/2000/svg">
<path fill-rule="evenodd" clip-rule="evenodd" d="M34.2131 1.62709C39.4592 3.68295 44.274 7.57935 47.3226 12.3202C48.2455 13.7279 49.0435 15.2133 49.7076 16.7596C51.8618 21.9086 51.4906 27.9751 49.3157 33.0211C47.1408 38.0672 43.1603 42.1321 38.3286 44.7235C29.4302 49.4943 17.7437 49.0917 9.41343 43.2761C0.528132 37.0748 -2.5805 24.4831 2.31119 14.9396C5.3692 8.97989 12.6833 3.68669 20.333 3.60993C23.6948 3.58184 29.2164 5.43736 29.627 9.38619C29.972 12.6947 25.9878 14.6981 23.271 15.2018C19.7687 15.8477 16.7894 16.6716 14.382 19.5082C10.4034 24.2004 10.6978 30.6058 15.3513 34.725C23.1792 41.6565 39.0054 37.1946 42.4909 27.5501C44.4859 22.0341 42.4066 15.7766 38.9773 11.0152C41.3922 13.6515 43.2559 16.8532 44.0171 20.3471C44.7784 23.8409 44.3921 27.6287 42.6484 30.7518C41.4035 32.9837 39.6523 34.8018 37.6424 36.354C34.3406 38.8948 30.5439 40.1212 26.4659 40.6829C26.4414 40.6849 26.4184 40.6957 26.4013 40.7134C26.3842 40.7311 26.3742 40.7544 26.373 40.7789C26.3719 40.8035 26.3797 40.8276 26.3951 40.8468C26.4105 40.866 26.4323 40.8789 26.4565 40.8832C35.1693 41.8157 43.2803 35.7604 45.3127 27.4845C45.5248 26.6227 45.674 25.7466 45.7589 24.8632C45.7796 24.646 45.7964 24.4269 45.8096 24.2098C45.947 21.68 45.5563 19.1493 44.6621 16.7783C43.3122 13.2021 40.9066 10.1052 38.0624 7.58497C35.0081 4.87003 31.4382 2.81043 27.6321 1.32563C27.1817 1.17758 26.743 0.996081 26.3197 0.782647C26.306 0.774879 26.2907 0.766441 26.2743 0.757352C26.128 0.676622 25.8888 0.544634 25.8753 0.376343C25.8481 -0.0856907 26.7514 -0.00417855 27.0596 0.0236266C27.0699 0.0245547 27.0795 0.0254229 27.0884 0.0262091C29.5307 0.197163 31.9329 0.736923 34.2131 1.62709ZM67.6118 30.1059V15.0333H70.7467V30.0123C70.7467 33.4967 72.6535 35.4665 75.854 35.4665C79.0845 35.4665 80.9276 33.4967 80.9276 30.0123V15.0333H84.0943V30.1059C84.0943 35.4964 80.5076 38.4005 75.854 38.4005C71.2004 38.4005 67.6118 35.4964 67.6118 30.1059ZM110.303 37.9174L97.9283 19.2611V37.9174H94.7578V15.0333H98.997L110.434 32.5905V15.0333H113.603V37.9174H110.303ZM154.934 15.0333H149.7L145.984 29.7183L141.232 15.0333H135.998L131.247 29.6865L127.47 15.0333H122.033L128.271 37.9174H133.646L138.559 22.7512L143.434 37.9174H148.697L154.934 15.0333ZM161.07 15.0333H167.057L171.744 23.5226L176.488 15.0333H182.177L174.127 28.3627V37.9118H169.022V28.3627L161.07 15.0333ZM195.23 22.8767L204.668 37.9174H210.066V15.0333H204.959V28.945L196.362 15.0333H190.156V37.9174H195.23V22.8767ZM220.181 37.9174V15.0333H228.487C235.372 15.0333 239.994 19.424 239.994 26.4922C239.994 33.5604 235.372 37.9137 228.455 37.9137L220.181 37.9174ZM228.26 33.1073C231.783 33.1073 234.661 31.0739 234.661 26.4922C234.661 21.9105 231.783 19.849 228.26 19.849H225.289V33.1148L228.26 33.1073Z" fill="#202020"/>
</svg>
